<?xml version="1.0" encoding="UTF-8"?>
<!DOCTYPE svg PUBLIC "-//W3C//DTD SVG 1.1//EN" "http://www.w3.org/Graphics/SVG/1.1/DTD/svg11.dtd">
<svg xmlns="http://www.w3.org/2000/svg" version="1.1" width="372px" height="373px" style="shape-rendering:geometricPrecision; text-rendering:geometricPrecision; image-rendering:optimizeQuality; fill-rule:evenodd; clip-rule:evenodd" xmlns:xlink="http://www.w3.org/1999/xlink">
<g><path style="opacity:0.847" fill="#accac5" d="M 180.5,16.5 C 178.194,16.9926 175.861,17.3259 173.5,17.5C 175.713,15.6883 178.047,15.3549 180.5,16.5 Z"/></g>
<g><path style="opacity:0.671" fill="#9cc1ba" d="M 143.5,24.5 C 141.1,27.9031 138.1,30.5698 134.5,32.5C 136.9,29.0969 139.9,26.4302 143.5,24.5 Z"/></g>
<g><path style="opacity:1" fill="#41877c" d="M 294.5,52.5 C 294.427,54.0269 295.094,55.0269 296.5,55.5C 298.887,57.9131 301.054,60.5798 303,63.5C 306.089,68.4059 308.923,73.4059 311.5,78.5C 311.427,80.0269 312.094,81.0269 313.5,81.5C 313.427,83.0269 314.094,84.0269 315.5,84.5C 316.338,84.8417 316.672,85.5084 316.5,86.5C 316.427,88.0269 317.094,89.0269 318.5,89.5C 318.427,91.0269 319.094,92.0269 320.5,92.5C 321.338,92.8417 321.672,93.5084 321.5,94.5C 321.427,96.0269 322.094,97.0269 323.5,97.5C 323.427,99.0269 324.094,100.027 325.5,100.5C 328.158,103.806 330.324,107.473 332,111.5C 333.257,120.133 334.091,128.8 334.5,137.5C 334.5,142.833 334.5,148.167 334.5,153.5C 336.179,153.715 337.179,153.048 337.5,151.5C 338.906,151.027 339.573,150.027 339.5,148.5C 340.338,148.842 340.672,149.508 340.5,150.5C 338.55,159.244 336.884,167.91 335.5,176.5C 334.518,173.038 334.185,169.371 334.5,165.5C 334.5,164.833 334.5,164.167 334.5,163.5C 335.788,161.965 335.788,160.299 334.5,158.5C 333.893,158.624 333.56,158.957 333.5,159.5C 332.207,160.645 331.041,160.311 330,158.5C 329.685,156.414 329.185,154.414 328.5,152.5C 327.738,150.738 326.404,149.738 324.5,149.5C 321.013,145.678 318.347,141.345 316.5,136.5C 316.5,134.5 316.5,132.5 316.5,130.5C 316.666,126.326 316,122.326 314.5,118.5C 314.167,116.167 312.833,114.833 310.5,114.5C 309.833,114.5 309.5,114.167 309.5,113.5C 309.027,112.094 308.027,111.427 306.5,111.5C 303.449,107.386 301.449,102.72 300.5,97.5C 300.5,94.1667 300.5,90.8333 300.5,87.5C 299.209,87.2627 298.209,87.596 297.5,88.5C 294.863,90.4274 291.863,90.9274 288.5,90C 282.033,86.0213 276.033,81.5213 270.5,76.5C 270.027,75.0937 269.027,74.427 267.5,74.5C 264.883,73.2141 262.55,71.5475 260.5,69.5C 260.027,68.0937 259.027,67.427 257.5,67.5C 255.223,66.5514 253.223,65.2181 251.5,63.5C 251.027,62.0937 250.027,61.427 248.5,61.5C 248.027,60.0937 247.027,59.427 245.5,59.5C 245.027,58.0937 244.027,57.427 242.5,57.5C 241.508,57.6716 240.842,57.3382 240.5,56.5C 240.027,55.0937 239.027,54.427 237.5,54.5C 234.669,53.9213 232.336,52.588 230.5,50.5C 225.26,49.6496 219.927,48.6496 214.5,47.5C 213.508,47.6716 212.842,47.3382 212.5,46.5C 212.027,45.0937 211.027,44.427 209.5,44.5C 203.885,42.0493 202.385,38.0493 205,32.5C 205.816,31.1772 206.983,30.5106 208.5,30.5C 213.294,31.0969 217.627,30.4302 221.5,28.5C 221.611,27.8826 221.944,27.3826 222.5,27C 250.682,23.8927 274.682,32.3927 294.5,52.5 Z"/></g>
<g><path style="opacity:0.663" fill="#99bfb9" d="M 221.5,28.5 C 217.627,30.4302 213.294,31.0969 208.5,30.5C 212.73,29.7798 217.063,29.1132 221.5,28.5 Z"/></g>
<g><path style="opacity:0.259" fill="#cfe1de" d="M 187.5,33.5 C 178.332,34.3846 168.999,35.0512 159.5,35.5C 161.292,34.6909 163.292,34.1909 165.5,34C 172.826,33.5003 180.159,33.3337 187.5,33.5 Z"/></g>
<g><path style="opacity:1" fill="#43887d" d="M 180.5,16.5 C 182.932,17.7502 185.266,19.2502 187.5,21C 189.134,21.4935 190.801,21.6602 192.5,21.5C 192.664,24.1873 192.497,26.854 192,29.5C 191.252,31.751 189.752,33.0844 187.5,33.5C 180.159,33.3337 172.826,33.5003 165.5,34C 163.292,34.1909 161.292,34.6909 159.5,35.5C 125.109,46.2914 95.9423,65.2914 72,92.5C 62.7771,103.278 56.4437,115.611 53,129.5C 50.8541,145.48 48.8541,161.48 47,177.5C 44.6732,180.815 43.5066,184.481 43.5,188.5C 44.3555,194.82 45.0222,201.154 45.5,207.5C 45.5,208.5 45.5,209.5 45.5,210.5C 44.209,210.263 43.209,210.596 42.5,211.5C 42.3253,213.621 42.6586,215.621 43.5,217.5C 45.0276,218.309 46.6943,218.976 48.5,219.5C 48.4332,221.401 48.7665,223.234 49.5,225C 49.1639,226.03 48.4972,226.53 47.5,226.5C 45.8296,223.895 45.4963,223.895 46.5,226.5C 46.5,226.833 46.5,227.167 46.5,227.5C 46.2627,228.791 46.596,229.791 47.5,230.5C 47.2627,231.791 47.596,232.791 48.5,233.5C 48.8333,234.167 49.1667,234.833 49.5,235.5C 50.172,236.267 51.0053,236.934 52,237.5C 52.3988,237.272 52.5654,236.938 52.5,236.5C 53.6049,237.6 54.9382,238.267 56.5,238.5C 57.4884,239.795 58.4884,241.128 59.5,242.5C 59.427,244.027 60.0937,245.027 61.5,245.5C 78.2231,262.225 95.2231,278.558 112.5,294.5C 113.919,295.451 115.585,295.784 117.5,295.5C 117.263,296.791 117.596,297.791 118.5,298.5C 118.833,298.5 119.167,298.5 119.5,298.5C 119.821,300.048 120.821,300.715 122.5,300.5C 127.272,302.883 132.272,304.716 137.5,306C 146.014,306.912 154.347,308.079 162.5,309.5C 164.518,310.047 166.351,311.047 168,312.5C 169.699,311.594 171.533,311.261 173.5,311.5C 177.544,311.844 181.544,312.51 185.5,313.5C 192.442,312.008 199.442,310.842 206.5,310C 207.984,309.338 209.317,308.504 210.5,307.5C 212.176,306.817 212.843,305.483 212.5,303.5C 213.5,303.5 214.5,303.5 215.5,303.5C 215.263,302.209 215.596,301.209 216.5,300.5C 217.472,302.493 218.805,302.826 220.5,301.5C 221.5,301.5 222.5,301.5 223.5,301.5C 223.263,300.209 223.596,299.209 224.5,298.5C 225.117,298.611 225.617,298.944 226,299.5C 226.278,298.584 226.778,297.918 227.5,297.5C 229.5,297.5 231.5,297.5 233.5,297.5C 233.821,299.048 234.821,299.715 236.5,299.5C 238.027,299.573 239.027,298.906 239.5,297.5C 240.167,297.833 240.833,298.167 241.5,298.5C 243.068,299.473 244.735,299.64 246.5,299C 254.195,294.156 261.861,289.323 269.5,284.5C 271.027,284.573 272.027,283.906 272.5,282.5C 283.282,273.935 294.282,265.602 305.5,257.5C 306.496,257.586 307.329,257.252 308,256.5C 308.974,260.095 309.807,259.762 310.5,255.5C 310.369,254.624 310.702,253.957 311.5,253.5C 312.726,254.363 314.06,254.363 315.5,253.5C 316.906,253.027 317.573,252.027 317.5,250.5C 319.094,247.236 321.427,244.569 324.5,242.5C 326.048,242.821 326.715,243.821 326.5,245.5C 323.12,255.262 318.454,264.262 312.5,272.5C 310.241,273.344 309.241,275.011 309.5,277.5C 306.16,282.83 302.327,287.83 298,292.5C 296.8,300.858 291.967,304.525 283.5,303.5C 282.833,304.167 282.167,304.833 281.5,305.5C 278.304,305.899 275.304,306.899 272.5,308.5C 273.193,309.518 273.859,310.518 274.5,311.5C 274.068,312.71 273.401,313.71 272.5,314.5C 271.448,314.351 270.448,314.517 269.5,315C 264.603,319.729 259.936,324.562 255.5,329.5C 254.549,330.919 254.216,332.585 254.5,334.5C 251.941,334.198 249.607,334.532 247.5,335.5C 247.5,336.167 247.167,336.5 246.5,336.5C 245.455,338.77 244.121,340.77 242.5,342.5C 241.109,340.429 239.276,338.762 237,337.5C 232.909,338.731 228.743,339.731 224.5,340.5C 224.768,342.099 224.434,343.432 223.5,344.5C 221.565,343.85 219.565,343.517 217.5,343.5C 211.914,339.936 205.914,338.936 199.5,340.5C 195.939,339.239 192.272,338.406 188.5,338C 176.157,337.449 163.824,337.616 151.5,338.5C 150.057,337.665 149.057,336.332 148.5,334.5C 147.893,334.624 147.56,334.957 147.5,335.5C 145.447,335.598 143.78,334.931 142.5,333.5C 142.027,332.094 141.027,331.427 139.5,331.5C 135.883,330.358 132.55,328.692 129.5,326.5C 129.027,325.094 128.027,324.427 126.5,324.5C 123.738,323.62 121.071,322.454 118.5,321C 113.095,321.025 108.095,319.858 103.5,317.5C 103.027,316.094 102.027,315.427 100.5,315.5C 99.8333,315.5 99.5,315.167 99.5,314.5C 99.0269,313.094 98.0269,312.427 96.5,312.5C 90.8819,311.758 85.2152,311.258 79.5,311C 71.498,308.997 65.998,304.164 63,296.5C 61.3312,291.155 59.6645,285.822 58,280.5C 55.9287,279.636 54.262,278.303 53,276.5C 46.0401,257.918 38.5401,239.584 30.5,221.5C 30.5,217.167 30.5,212.833 30.5,208.5C 31.791,208.737 32.791,208.404 33.5,207.5C 31.5179,192.72 26.8512,178.886 19.5,166C 21.129,154.723 23.129,143.556 25.5,132.5C 27.0739,130.898 27.7406,128.898 27.5,126.5C 28.9702,120.218 31.9702,114.885 36.5,110.5C 37.9063,110.027 38.573,109.027 38.5,107.5C 38.8333,106.5 39.5,105.833 40.5,105.5C 43.0892,104.581 45.0892,102.914 46.5,100.5C 49.5,96.8333 52.8333,93.5 56.5,90.5C 58.2624,89.7377 59.2624,88.4044 59.5,86.5C 59.5,86.1667 59.5,85.8333 59.5,85.5C 60.7464,83.9916 62.0797,82.4916 63.5,81C 62.7476,80.3292 62.4142,79.4959 62.5,78.5C 63.1174,78.6107 63.6174,78.944 64,79.5C 71.5878,70.6947 79.4212,62.028 87.5,53.5C 87.8333,52.5 88.5,51.8333 89.5,51.5C 91.7488,50.9202 93.4154,49.5869 94.5,47.5C 99.6405,46.5119 104.974,46.1786 110.5,46.5C 112.649,39.5195 117.316,35.0195 124.5,33C 127.936,32.982 131.269,32.8153 134.5,32.5C 138.1,30.5698 141.1,27.9031 143.5,24.5C 144.542,23.2089 145.708,23.2089 147,24.5C 147.195,26.2072 147.195,27.8739 147,29.5C 147.671,28.7476 148.504,28.4142 149.5,28.5C 151.027,28.573 152.027,27.9063 152.5,26.5C 159.013,22.5451 166.013,19.5451 173.5,17.5C 175.861,17.3259 178.194,16.9926 180.5,16.5 Z M 42.5,228.5 C 40.2398,227.762 40.0731,226.762 42,225.5C 42.4828,226.448 42.6495,227.448 42.5,228.5 Z"/></g>
<g><path style="opacity:0.749" fill="#a5c5c0" d="M 152.5,26.5 C 152.027,27.9063 151.027,28.573 149.5,28.5C 149.973,27.0937 150.973,26.427 152.5,26.5 Z"/></g>
<g><path style="opacity:0.408" fill="#b1cec9" d="M 209.5,44.5 C 211.027,44.427 212.027,45.0937 212.5,46.5C 210.973,46.573 209.973,45.9063 209.5,44.5 Z"/></g>
<g><path style="opacity:0.957" fill="#9ec1bb" d="M 214.5,47.5 C 219.927,48.6496 225.26,49.6496 230.5,50.5C 224.743,51.0683 219.41,50.0683 214.5,47.5 Z"/></g>
<g><path style="opacity:0.914" fill="#89b4ac" d="M 94.5,47.5 C 93.4154,49.5869 91.7488,50.9202 89.5,51.5C 90.5846,49.4131 92.2512,48.0798 94.5,47.5 Z"/></g>
<g><path style="opacity:0.612" fill="#b1cec9" d="M 294.5,52.5 C 295.906,52.9731 296.573,53.9731 296.5,55.5C 295.094,55.0269 294.427,54.0269 294.5,52.5 Z"/></g>
<g><path style="opacity:0.357" fill="#b7d1cd" d="M 237.5,54.5 C 239.027,54.427 240.027,55.0937 240.5,56.5C 238.973,56.573 237.973,55.9063 237.5,54.5 Z"/></g>
<g><path style="opacity:0.498" fill="#a2c4bf" d="M 242.5,57.5 C 244.027,57.427 245.027,58.0937 245.5,59.5C 243.973,59.573 242.973,58.9063 242.5,57.5 Z"/></g>
<g><path style="opacity:0.408" fill="#afccc8" d="M 245.5,59.5 C 247.027,59.427 248.027,60.0937 248.5,61.5C 246.973,61.573 245.973,60.9063 245.5,59.5 Z"/></g>
<g><path style="opacity:0.376" fill="#b5d0cc" d="M 248.5,61.5 C 250.027,61.427 251.027,62.0937 251.5,63.5C 249.973,63.573 248.973,62.9063 248.5,61.5 Z"/></g>
<g><path style="opacity:0.974" fill="#6ba097" d="M 87.5,53.5 C 79.4212,62.028 71.5878,70.6947 64,79.5C 63.6174,78.944 63.1174,78.6107 62.5,78.5C 69.5737,69.9216 77.2404,61.7549 85.5,54C 86.0944,53.5357 86.7611,53.369 87.5,53.5 Z"/></g>
<g><path style="opacity:0.482" fill="#a8c8c3" d="M 257.5,67.5 C 259.027,67.427 260.027,68.0937 260.5,69.5C 258.973,69.573 257.973,68.9063 257.5,67.5 Z"/></g>
<g><path style="opacity:0.561" fill="#9fc3bd" d="M 267.5,74.5 C 269.027,74.427 270.027,75.0937 270.5,76.5C 268.973,76.573 267.973,75.9063 267.5,74.5 Z"/></g>
<g><path style="opacity:1" fill="#8bb5ae" d="M 62.5,78.5 C 62.4142,79.4959 62.7476,80.3292 63.5,81C 62.0797,82.4916 60.7464,83.9916 59.5,85.5C 59.9348,82.8427 60.9348,80.5093 62.5,78.5 Z"/></g>
<g><path style="opacity:0.42" fill="#abcac5" d="M 311.5,78.5 C 312.906,78.9731 313.573,79.9731 313.5,81.5C 312.094,81.0269 311.427,80.0269 311.5,78.5 Z"/></g>
<g><path style="opacity:0.318" fill="#bbd3d0" d="M 313.5,81.5 C 314.906,81.9731 315.573,82.9731 315.5,84.5C 314.094,84.0269 313.427,83.0269 313.5,81.5 Z"/></g>
<g><path style="opacity:0.6" fill="#a7c7c2" d="M 59.5,86.5 C 59.2624,88.4044 58.2624,89.7377 56.5,90.5C 56.7376,88.5956 57.7376,87.2623 59.5,86.5 Z"/></g>
<g><path style="opacity:0.431" fill="#abc9c3" d="M 316.5,86.5 C 317.906,86.9731 318.573,87.9731 318.5,89.5C 317.094,89.0269 316.427,88.0269 316.5,86.5 Z"/></g>
<g><path style="opacity:0.565" fill="#b2cdc9" d="M 297.5,88.5 C 298.209,87.596 299.209,87.2627 300.5,87.5C 300.5,90.8333 300.5,94.1667 300.5,97.5C 300.11,94.2033 299.11,91.2033 297.5,88.5 Z"/></g>
<g><path style="opacity:0.306" fill="#bdd5d1" d="M 318.5,89.5 C 319.906,89.9731 320.573,90.9731 320.5,92.5C 319.094,92.0269 318.427,91.0269 318.5,89.5 Z"/></g>
<g><path style="opacity:0.439" fill="#a8c6c2" d="M 321.5,94.5 C 322.906,94.9731 323.573,95.9731 323.5,97.5C 322.094,97.0269 321.427,96.0269 321.5,94.5 Z"/></g>
<g><path style="opacity:0.31" fill="#bcd4d0" d="M 323.5,97.5 C 324.906,97.9731 325.573,98.9731 325.5,100.5C 324.094,100.027 323.427,99.0269 323.5,97.5 Z"/></g>
<g><path style="opacity:0.686" fill="#a2c4bf" d="M 46.5,100.5 C 45.0892,102.914 43.0892,104.581 40.5,105.5C 41.9108,103.086 43.9108,101.419 46.5,100.5 Z"/></g>
<g><path style="opacity:0.627" fill="#b1cdc9" d="M 38.5,107.5 C 38.573,109.027 37.9063,110.027 36.5,110.5C 36.427,108.973 37.0937,107.973 38.5,107.5 Z"/></g>
<g><path style="opacity:0.694" fill="#a9c9c3" d="M 306.5,111.5 C 308.027,111.427 309.027,112.094 309.5,113.5C 307.973,113.573 306.973,112.906 306.5,111.5 Z"/></g>
<g><path style="opacity:0.714" fill="#a4c5c0" d="M 168.5,115.5 C 165.833,115.5 163.167,115.5 160.5,115.5C 163.289,113.286 165.956,113.286 168.5,115.5 Z"/></g>
<g><path style="opacity:0.659" fill="#bcd5d1" d="M 310.5,114.5 C 312.833,114.833 314.167,116.167 314.5,118.5C 312.833,117.5 311.5,116.167 310.5,114.5 Z"/></g>
<g><path style="opacity:0.722" fill="#a5c6c0" d="M 249.5,115.5 C 246.43,115.368 243.43,115.701 240.5,116.5C 241.958,114.989 243.791,113.989 246,113.5C 247.302,114.085 248.469,114.751 249.5,115.5 Z"/></g>
<g><path style="opacity:0.698" fill="#a8c8c3" d="M 160.5,115.5 C 160.027,116.906 159.027,117.573 157.5,117.5C 157.973,116.094 158.973,115.427 160.5,115.5 Z"/></g>
<g><path style="opacity:1" fill="#4f8f85" d="M 249.5,115.5 C 249.833,115.5 250.167,115.5 250.5,115.5C 250.427,117.027 251.094,118.027 252.5,118.5C 253.222,118.918 253.722,119.584 254,120.5C 254.687,126.204 254.521,131.87 253.5,137.5C 252.833,137.5 252.5,137.833 252.5,138.5C 251.662,138.842 251.328,139.508 251.5,140.5C 247.249,151.312 240.749,160.645 232,168.5C 231.333,179.5 231.333,190.5 232,201.5C 232.192,203.577 232.692,205.577 233.5,207.5C 234.482,205.089 235.149,202.589 235.5,200C 234.167,190.514 233.333,181.014 233,171.5C 233.708,170.619 234.542,169.953 235.5,169.5C 239.371,169.815 243.038,169.482 246.5,168.5C 248.132,168.175 249.132,167.175 249.5,165.5C 250.205,161.68 251.371,158.014 253,154.5C 255.553,152.271 258.386,151.938 261.5,153.5C 261.833,154.667 262.167,155.833 262.5,157C 260.522,165.054 259.522,173.221 259.5,181.5C 264.208,180.485 267.875,177.818 270.5,173.5C 271.995,172.295 273.328,172.295 274.5,173.5C 274.953,176.652 273.953,179.152 271.5,181C 272.056,181.383 272.389,181.883 272.5,182.5C 271.094,182.973 270.427,183.973 270.5,185.5C 267.144,184.862 265.144,186.196 264.5,189.5C 263.054,190.94 261.221,191.607 259,191.5C 257.615,191.486 256.449,191.152 255.5,190.5C 253.845,187.847 251.845,185.514 249.5,183.5C 248.691,181.708 248.191,179.708 248,177.5C 245.218,178.346 242.384,178.513 239.5,178C 242.876,188.797 243.043,199.63 240,210.5C 237.647,215.426 233.814,217.26 228.5,216C 226.937,215.241 225.937,214.074 225.5,212.5C 225.402,211.118 225.402,209.618 225.5,208C 224.309,207.302 223.309,206.469 222.5,205.5C 221.539,203.735 221.205,201.735 221.5,199.5C 221.826,195.116 221.492,190.783 220.5,186.5C 219.893,186.624 219.56,186.957 219.5,187.5C 213.545,193.251 208.211,192.584 203.5,185.5C 199.271,190.966 193.938,192.466 187.5,190C 186.29,188.961 185.29,187.794 184.5,186.5C 181.375,184.804 179.375,185.804 178.5,189.5C 169.739,193.786 164.405,191.119 162.5,181.5C 163.772,176.211 164.272,170.878 164,165.5C 159.727,171.378 156.561,177.712 154.5,184.5C 152.721,185.67 151.721,187.336 151.5,189.5C 148.227,192.476 145.394,192.143 143,188.5C 142.158,176.058 142.658,163.725 144.5,151.5C 145.913,148.781 146.58,145.781 146.5,142.5C 146.5,142.167 146.5,141.833 146.5,141.5C 147.793,140.158 148.626,138.491 149,136.5C 150.892,137.13 152.559,138.13 154,139.5C 155.466,134.768 157.133,130.102 159,125.5C 159.483,126.448 159.649,127.448 159.5,128.5C 157.574,135.8 155.907,143.133 154.5,150.5C 153.861,151.097 153.528,151.93 153.5,153C 154.522,155.191 155.522,157.358 156.5,159.5C 155.488,160.872 154.488,162.205 153.5,163.5C 152.366,165.966 152.199,168.633 153,171.5C 154.039,170.756 154.539,169.756 154.5,168.5C 155.079,165.669 156.412,163.336 158.5,161.5C 160.262,160.738 161.262,159.404 161.5,157.5C 163.027,157.573 164.027,156.906 164.5,155.5C 167.994,152.107 171.827,151.774 176,154.5C 176.667,158.167 176.667,161.833 176,165.5C 174.842,170.457 174.008,175.457 173.5,180.5C 173.62,181.586 174.287,182.253 175.5,182.5C 176.416,182.457 177.083,182.124 177.5,181.5C 181.573,180.413 183.239,177.746 182.5,173.5C 182.366,171.708 182.699,170.042 183.5,168.5C 185.759,167.656 186.759,165.989 186.5,163.5C 188.964,158.373 192.964,155.04 198.5,153.5C 201.279,153.279 203.946,153.612 206.5,154.5C 208.746,155.21 211.08,155.71 213.5,156C 214.167,157 214.833,158 215.5,159C 213.275,166.301 212.275,173.801 212.5,181.5C 213.5,181.5 214.5,181.5 215.5,181.5C 218.167,180.833 219.833,179.167 220.5,176.5C 220.812,166.984 222.145,157.651 224.5,148.5C 226.163,146.562 226.829,144.228 226.5,141.5C 228.074,139.898 228.741,137.898 228.5,135.5C 229.382,131.407 231.049,127.74 233.5,124.5C 234.906,124.027 235.573,123.027 235.5,121.5C 235.5,120.833 235.833,120.5 236.5,120.5C 238.167,119.5 239.5,118.167 240.5,116.5C 243.43,115.701 246.43,115.368 249.5,115.5 Z M 240.5,147.5 C 239.094,147.973 238.427,148.973 238.5,150.5C 237.094,150.973 236.427,151.973 236.5,153.5C 235.833,153.833 235.167,154.167 234.5,154.5C 235.776,144.065 238.609,134.065 243,124.5C 245.055,123.505 246.221,124.338 246.5,127C 245.607,134.177 243.607,141.011 240.5,147.5 Z M 203.5,161.5 C 203.079,168.106 201.579,174.44 199,180.5C 196.389,183.243 194.222,182.91 192.5,179.5C 192.704,176.482 193.037,173.482 193.5,170.5C 195.019,167.979 196.686,165.479 198.5,163C 200.025,161.991 201.692,161.491 203.5,161.5 Z"/></g>
<g><path style="opacity:0.475" fill="#b0cdc8" d="M 169.5,115.5 C 170.906,115.973 171.573,116.973 171.5,118.5C 170.094,118.027 169.427,117.027 169.5,115.5 Z"/></g>
<g><path style="opacity:0.608" fill="#a8c8c3" d="M 240.5,116.5 C 239.5,118.167 238.167,119.5 236.5,120.5C 236.833,118.167 238.167,116.833 240.5,116.5 Z"/></g>
<g><path style="opacity:0.388" fill="#b8d2ce" d="M 250.5,115.5 C 251.906,115.973 252.573,116.973 252.5,118.5C 251.094,118.027 250.427,117.027 250.5,115.5 Z"/></g>
<g><path style="opacity:1" fill="#549288" d="M 160.5,115.5 C 163.167,115.5 165.833,115.5 168.5,115.5C 168.833,115.5 169.167,115.5 169.5,115.5C 169.427,117.027 170.094,118.027 171.5,118.5C 174.146,125.386 173.98,132.386 171,139.5C 167.077,146.908 162.244,153.575 156.5,159.5C 155.522,157.358 154.522,155.191 153.5,153C 153.528,151.93 153.861,151.097 154.5,150.5C 154.81,151.738 155.31,151.738 156,150.5C 160.725,143.657 163.892,136.157 165.5,128C 164.91,126.491 164.244,124.991 163.5,123.5C 161.459,124.707 160.126,126.374 159.5,128.5C 159.649,127.448 159.483,126.448 159,125.5C 157.133,130.102 155.466,134.768 154,139.5C 152.559,138.13 150.892,137.13 149,136.5C 148.626,138.491 147.793,140.158 146.5,141.5C 148.041,132.424 151.708,124.424 157.5,117.5C 159.027,117.573 160.027,116.906 160.5,115.5 Z"/></g>
<g><path style="opacity:1" fill="#508f85" d="M 126.5,187.5 C 123.562,187.273 121.229,188.273 119.5,190.5C 109.727,192.641 100.394,191.474 91.5,187C 85.7774,182.297 84.1108,176.464 86.5,169.5C 87.8333,168.833 88.8333,167.833 89.5,166.5C 92.1431,165.021 94.6431,165.354 97,167.5C 97.3333,171.167 97.6667,174.833 98,178.5C 99.4194,179.46 100.919,180.293 102.5,181C 108.551,181.746 114.551,181.579 120.5,180.5C 122.833,180.167 124.167,178.833 124.5,176.5C 125.143,172.567 124.143,169.234 121.5,166.5C 121.027,165.094 120.027,164.427 118.5,164.5C 109.705,162.297 101.872,158.297 95,152.5C 88.379,140.23 91.2123,130.73 103.5,124C 115.588,119.488 126.755,120.988 137,128.5C 140.483,134.984 140.317,141.317 136.5,147.5C 131.917,149.208 128.917,147.708 127.5,143C 129.297,139.102 128.63,135.769 125.5,133C 118.995,130.737 112.662,131.071 106.5,134C 102.5,138.333 102.5,142.667 106.5,147C 114.132,150.66 121.798,154.326 129.5,158C 136.554,164.098 138.387,171.598 135,180.5C 133.195,184.143 130.362,186.476 126.5,187.5 Z"/></g>
<g><path style="opacity:0.294" fill="#bed6d1" d="M 235.5,121.5 C 235.573,123.027 234.906,124.027 233.5,124.5C 233.427,122.973 234.094,121.973 235.5,121.5 Z"/></g>
<g><path style="opacity:0.788" fill="#aeccc7" d="M 27.5,126.5 C 27.7406,128.898 27.0739,130.898 25.5,132.5C 25.595,130.214 26.2616,128.214 27.5,126.5 Z"/></g>
<g><path style="opacity:0.859" fill="#aac9c3" d="M 316.5,130.5 C 316.5,132.5 316.5,134.5 316.5,136.5C 314.269,134.642 314.269,132.642 316.5,130.5 Z"/></g>
<g><path style="opacity:1" fill="#518f86" d="M 263.5,146.5 C 260.098,146.658 256.764,146.324 253.5,145.5C 252.549,144.081 252.216,142.415 252.5,140.5C 253.338,140.158 253.672,139.492 253.5,138.5C 253.5,138.167 253.5,137.833 253.5,137.5C 258.003,133.555 262.503,133.555 267,137.5C 267.667,139.5 267.667,141.5 267,143.5C 266.578,145.426 265.411,146.426 263.5,146.5 Z"/></g>
<g><path style="opacity:0.835" fill="#a5c6c0" d="M 228.5,135.5 C 228.741,137.898 228.074,139.898 226.5,141.5C 226.595,139.214 227.262,137.214 228.5,135.5 Z"/></g>
<g><path style="opacity:0.078" fill="#dce9e7" d="M 252.5,138.5 C 252.833,138.5 253.167,138.5 253.5,138.5C 253.672,139.492 253.338,140.158 252.5,140.5C 252.167,140.5 251.833,140.5 251.5,140.5C 251.328,139.508 251.662,138.842 252.5,138.5 Z"/></g>
<g><path style="opacity:0.835" fill="#a9c8c3" d="M 226.5,141.5 C 226.829,144.228 226.163,146.562 224.5,148.5C 224.721,145.933 225.388,143.599 226.5,141.5 Z"/></g>
<g><path style="opacity:0.702" fill="#a5c5c0" d="M 253.5,145.5 C 256.764,146.324 260.098,146.658 263.5,146.5C 260.053,148.823 256.719,148.489 253.5,145.5 Z"/></g>
<g><path style="opacity:0.149" fill="#deeae9" d="M 339.5,148.5 C 340.302,147.115 340.969,147.282 341.5,149C 341.43,149.765 341.097,150.265 340.5,150.5C 340.672,149.508 340.338,148.842 339.5,148.5 Z"/></g>
<g><path style="opacity:0.25" fill="#cee0dd" d="M 334.5,137.5 C 335.326,142.316 335.826,147.316 336,152.5C 336.383,151.944 336.883,151.611 337.5,151.5C 337.179,153.048 336.179,153.715 334.5,153.5C 334.5,148.167 334.5,142.833 334.5,137.5 Z"/></g>
<g><path style="opacity:0.361" fill="#b2cfca" d="M 240.5,147.5 C 240.573,149.027 239.906,150.027 238.5,150.5C 238.427,148.973 239.094,147.973 240.5,147.5 Z"/></g>
<g><path style="opacity:0.541" fill="#bfd6d3" d="M 324.5,149.5 C 326.404,149.738 327.738,150.738 328.5,152.5C 326.596,152.262 325.262,151.262 324.5,149.5 Z"/></g>
<g><path style="opacity:0.369" fill="#bcd4d0" d="M 146.5,142.5 C 146.58,145.781 145.913,148.781 144.5,151.5C 144.42,148.219 145.087,145.219 146.5,142.5 Z"/></g>
<g><path style="opacity:0.224" fill="#ccdedc" d="M 339.5,148.5 C 339.573,150.027 338.906,151.027 337.5,151.5C 337.427,149.973 338.094,148.973 339.5,148.5 Z"/></g>
<g><path style="opacity:0.451" fill="#bbd4d0" d="M 198.5,153.5 C 199.622,152.844 200.955,152.511 202.5,152.5C 204.333,152.585 205.666,153.252 206.5,154.5C 203.946,153.612 201.279,153.279 198.5,153.5 Z"/></g>
<g><path style="opacity:0.439" fill="#afccc7" d="M 238.5,150.5 C 238.573,152.027 237.906,153.027 236.5,153.5C 236.427,151.973 237.094,150.973 238.5,150.5 Z"/></g>
<g><path style="opacity:0.718" fill="#9fc3bd" d="M 164.5,155.5 C 164.027,156.906 163.027,157.573 161.5,157.5C 161.973,156.094 162.973,155.427 164.5,155.5 Z"/></g>
<g><path style="opacity:0.533" fill="#9abeb9" d="M 236.5,153.5 C 236.114,156.262 234.781,157.262 232.5,156.5C 233.243,155.818 233.909,155.151 234.5,154.5C 235.167,154.167 235.833,153.833 236.5,153.5 Z"/></g>
<g><path style="opacity:0.769" fill="#a7c7c2" d="M 161.5,157.5 C 161.262,159.404 160.262,160.738 158.5,161.5C 158.738,159.596 159.738,158.262 161.5,157.5 Z"/></g>
<g><path style="opacity:0.165" fill="#d2e3e0" d="M 333.5,159.5 C 333.56,158.957 333.893,158.624 334.5,158.5C 335.788,160.299 335.788,161.965 334.5,163.5C 334.768,161.901 334.434,160.568 333.5,159.5 Z"/></g>
<g><path style="opacity:0.38" fill="#b3cfca" d="M 118.5,164.5 C 120.027,164.427 121.027,165.094 121.5,166.5C 119.973,166.573 118.973,165.906 118.5,164.5 Z"/></g>
<g><path style="opacity:1" fill="#84b0a9" d="M 186.5,163.5 C 186.759,165.989 185.759,167.656 183.5,168.5C 183.75,166.326 184.75,164.659 186.5,163.5 Z"/></g>
<g><path style="opacity:0.227" fill="#c1d8d4" d="M 89.5,166.5 C 88.8333,167.833 87.8333,168.833 86.5,169.5C 86.5,167.5 87.5,166.5 89.5,166.5 Z"/></g>
<g><path style="opacity:0.129" fill="#d0e1df" d="M 153.5,163.5 C 153.216,165.415 153.549,167.081 154.5,168.5C 154.539,169.756 154.039,170.756 153,171.5C 152.199,168.633 152.366,165.966 153.5,163.5 Z"/></g>
<g><path style="opacity:0.599" fill="#86b3ac" d="M 246.5,168.5 C 243.038,169.482 239.371,169.815 235.5,169.5C 235.811,168.522 236.478,167.855 237.5,167.5C 240.421,168.407 243.421,168.74 246.5,168.5 Z"/></g>
<g><path style="opacity:0.273" fill="#d1e2df" d="M 334.5,165.5 C 334.185,169.371 334.518,173.038 335.5,176.5C 335.662,178.527 335.495,180.527 335,182.5C 334.667,182.167 334.333,181.833 334,181.5C 333.183,175.984 333.349,170.65 334.5,165.5 Z"/></g>
<g><path style="opacity:0.529" fill="#9fc2bd" d="M 193.5,170.5 C 193.037,173.482 192.704,176.482 192.5,179.5C 191.185,176.373 191.518,173.373 193.5,170.5 Z"/></g>
<g><path style="opacity:0.533" fill="#aeccc7" d="M 124.5,176.5 C 124.167,178.833 122.833,180.167 120.5,180.5C 121.5,178.833 122.833,177.5 124.5,176.5 Z"/></g>
<g><path style="opacity:0.655" fill="#b4cfcb" d="M 182.5,173.5 C 183.239,177.746 181.573,180.413 177.5,181.5C 180.067,179.293 181.733,176.627 182.5,173.5 Z"/></g>
<g><path style="opacity:0.584" fill="#abcac5" d="M 220.5,176.5 C 219.833,179.167 218.167,180.833 215.5,181.5C 216.833,179.5 218.5,177.833 220.5,176.5 Z"/></g>
<g><path style="opacity:0.986" fill="#82afa8" d="M 274.5,173.5 C 275.629,175.628 275.796,177.961 275,180.5C 274.292,181.381 273.458,182.047 272.5,182.5C 272.389,181.883 272.056,181.383 271.5,181C 273.953,179.152 274.953,176.652 274.5,173.5 Z"/></g>
<g><path style="opacity:0.2" fill="#b6d1cc" d="M 173.5,180.5 C 174.708,181.234 176.041,181.567 177.5,181.5C 177.083,182.124 176.416,182.457 175.5,182.5C 174.287,182.253 173.62,181.586 173.5,180.5 Z"/></g>
<g><path style="opacity:0.004" fill="#d6e5e3" d="M 272.5,182.5 C 272.573,184.027 271.906,185.027 270.5,185.5C 270.427,183.973 271.094,182.973 272.5,182.5 Z"/></g>
<g><path style="opacity:0.99" fill="#7baba3" d="M 249.5,183.5 C 251.845,185.514 253.845,187.847 255.5,190.5C 252.054,189.388 250.054,187.055 249.5,183.5 Z"/></g>
<g><path style="opacity:0.988" fill="#89b3ab" d="M 270.5,185.5 C 268.777,187.218 266.777,188.551 264.5,189.5C 265.144,186.196 267.144,184.862 270.5,185.5 Z"/></g>
<g><path style="opacity:0.992" fill="#84b0a9" d="M 154.5,184.5 C 154.727,186.933 153.727,188.599 151.5,189.5C 151.721,187.336 152.721,185.67 154.5,184.5 Z"/></g>
<g><path style="opacity:0.992" fill="#85b0a8" d="M 184.5,186.5 C 182.5,187.5 180.5,188.5 178.5,189.5C 179.375,185.804 181.375,184.804 184.5,186.5 Z"/></g>
<g><path style="opacity:1" fill="#92b9b2" d="M 126.5,187.5 C 124.68,189.448 122.346,190.448 119.5,190.5C 121.229,188.273 123.562,187.273 126.5,187.5 Z"/></g>
<g><path style="opacity:0.188" fill="#cbdedb" d="M 219.5,187.5 C 219.56,186.957 219.893,186.624 220.5,186.5C 221.492,190.783 221.826,195.116 221.5,199.5C 220.833,195.5 220.167,191.5 219.5,187.5 Z"/></g>
<g><path style="opacity:1" fill="#83b0a8" d="M 222.5,205.5 C 223.309,206.469 224.309,207.302 225.5,208C 225.402,209.618 225.402,211.118 225.5,212.5C 223.552,210.68 222.552,208.346 222.5,205.5 Z"/></g>
<g><path style="opacity:0.129" fill="#ecf3f2" d="M 45.5,207.5 C 46.4345,208.568 46.7678,209.901 46.5,211.5C 45.1667,211.5 43.8333,211.5 42.5,211.5C 43.209,210.596 44.209,210.263 45.5,210.5C 45.5,209.5 45.5,208.5 45.5,207.5 Z"/></g>
<g><path style="opacity:0.639" fill="#adcbc6" d="M 33.5,207.5 C 32.791,208.404 31.791,208.737 30.5,208.5C 30.5,212.833 30.5,217.167 30.5,221.5C 29.5139,217.03 29.1805,212.363 29.5,207.5C 30.8333,207.5 32.1667,207.5 33.5,207.5 Z"/></g>
<g><path style="opacity:0.984" fill="#94bbb4" d="M 48.5,219.5 C 46.6943,218.976 45.0276,218.309 43.5,217.5C 46.2258,215.699 47.8924,216.366 48.5,219.5 Z"/></g>
<g><path style="opacity:0.047" fill="#edf4f3" d="M 47.5,226.5 C 47.1667,226.5 46.8333,226.5 46.5,226.5C 45.4963,223.895 45.8296,223.895 47.5,226.5 Z"/></g>
<g><path style="opacity:0.995" fill="#6aa097" d="M 48.5,219.5 C 51.5375,225.594 54.2042,231.927 56.5,238.5C 54.9382,238.267 53.6049,237.6 52.5,236.5C 52.5,235.833 52.1667,235.5 51.5,235.5C 50.0582,234.18 49.3915,232.514 49.5,230.5C 49.6716,229.508 49.3382,228.842 48.5,228.5C 47.8333,228.5 47.5,228.833 47.5,229.5C 47.5,229.833 47.5,230.167 47.5,230.5C 46.596,229.791 46.2627,228.791 46.5,227.5C 47.1667,227.5 47.5,227.167 47.5,226.5C 48.4972,226.53 49.1639,226.03 49.5,225C 48.7665,223.234 48.4332,221.401 48.5,219.5 Z"/></g>
<g><path style="opacity:0.102" fill="#dfebe9" d="M 48.5,228.5 C 49.3382,228.842 49.6716,229.508 49.5,230.5C 48.596,231.209 48.2627,232.209 48.5,233.5C 47.596,232.791 47.2627,231.791 47.5,230.5C 47.5,230.167 47.5,229.833 47.5,229.5C 48.1667,229.5 48.5,229.167 48.5,228.5 Z"/></g>
<g><path style="opacity:0.578" fill="#a2c4bf" d="M 174.5,233.5 C 172.167,232.167 169.833,232.167 167.5,233.5C 166.957,233.44 166.624,233.107 166.5,232.5C 169.5,231.167 172.5,231.167 175.5,232.5C 175.376,233.107 175.043,233.44 174.5,233.5 Z"/></g>
<g><path style="opacity:0.992" fill="#87b2ab" d="M 235.5,232.5 C 235.672,233.492 235.338,234.158 234.5,234.5C 233.167,234.5 231.833,234.5 230.5,234.5C 230.5,236.167 230.5,237.833 230.5,239.5C 232.5,239.5 234.5,239.5 236.5,239.5C 236.5,240.5 236.5,241.5 236.5,242.5C 227.513,243.335 225.18,239.835 229.5,232C 231.712,231.211 233.712,231.378 235.5,232.5 Z"/></g>
<g><path style="opacity:0.161" fill="#c7dcd9" d="M 250.5,231.5 C 251.043,231.56 251.376,231.893 251.5,232.5C 250.624,233.251 249.624,233.751 248.5,234C 249.416,234.278 250.082,234.778 250.5,235.5C 249.5,235.5 248.5,235.5 247.5,235.5C 247.5,234.5 247.5,233.5 247.5,232.5C 248.791,232.737 249.791,232.404 250.5,231.5 Z"/></g>
<g><path style="opacity:0.315" fill="#c1d8d5" d="M 153.5,235.5 C 152.167,235.5 150.833,235.5 149.5,235.5C 148.16,234.706 147.993,236.706 149,241.5C 149.21,239.942 149.71,238.609 150.5,237.5C 150.5,239.167 150.5,240.833 150.5,242.5C 149.5,242.5 148.5,242.5 147.5,242.5C 147.5,239.833 147.5,237.167 147.5,234.5C 146.5,234.5 145.5,234.5 144.5,234.5C 144.5,237.167 144.5,239.833 144.5,242.5C 143.5,242.5 142.5,242.5 141.5,242.5C 141.5,239.833 141.5,237.167 141.5,234.5C 140.209,234.737 139.209,234.404 138.5,233.5C 137.957,233.44 137.624,233.107 137.5,232.5C 141.783,231.508 146.116,231.174 150.5,231.5C 150.5,232.5 150.5,233.5 150.5,234.5C 151.791,234.263 152.791,234.596 153.5,235.5 Z"/></g>
<g><path style="opacity:1" fill="#378176" d="M 138.5,233.5 C 142.967,232.138 144.633,232.138 143.5,233.5C 143.167,244.167 142.833,244.167 142.5,233.5C 141.167,233.5 139.833,233.5 138.5,233.5 Z"/></g>
<g><path style="opacity:0.937" fill="#3a8378" d="M 167.5,233.5 C 169.833,232.167 172.167,232.167 174.5,233.5C 172.833,233.5 171.167,233.5 169.5,233.5C 169.5,234.5 169.5,235.5 169.5,236.5C 174.833,236.833 174.833,237.167 169.5,237.5C 169.5,238.833 169.5,240.167 169.5,241.5C 168.833,238.833 168.167,236.167 167.5,233.5 Z"/></g>
<g><path style="opacity:0.098" fill="#eef4f3" d="M 181.5,235.5 C 179.833,235.5 178.167,235.5 176.5,235.5C 176.5,237.5 176.5,239.5 176.5,241.5C 176.5,241.833 176.5,242.167 176.5,242.5C 175.527,240.052 175.194,237.385 175.5,234.5C 177.735,234.205 179.735,234.539 181.5,235.5 Z"/></g>
<g><path style="opacity:0.008" fill="#e3edec" d="M 235.5,232.5 C 236.776,233.386 236.776,234.386 235.5,235.5C 234.893,235.376 234.56,235.043 234.5,234.5C 235.338,234.158 235.672,233.492 235.5,232.5 Z"/></g>
<g><path style="opacity:0.012" fill="#d6e5e3" d="M 49.5,235.5 C 50.1667,235.5 50.8333,235.5 51.5,235.5C 52.1667,235.5 52.5,235.833 52.5,236.5C 52.5654,236.938 52.3988,237.272 52,237.5C 51.0053,236.934 50.172,236.267 49.5,235.5 Z"/></g>
<g><path style="opacity:0.885" fill="#73a69e" d="M 95.5,235.5 C 98.925,235.367 99.2583,236.033 96.5,237.5C 96.2852,239.179 96.9519,240.179 98.5,240.5C 98.8417,241.338 99.5084,241.672 100.5,241.5C 99.7261,242.147 98.7261,242.48 97.5,242.5C 95.9704,242.36 94.9704,241.693 94.5,240.5C 94.5,239.167 94.5,237.833 94.5,236.5C 94.5,235.833 94.8333,235.5 95.5,235.5 Z"/></g>
<g><path style="opacity:0.914" fill="#559389" d="M 108.5,242.5 C 108.167,242.5 107.833,242.5 107.5,242.5C 107.784,240.585 107.451,238.919 106.5,237.5C 104.952,237.821 104.285,238.821 104.5,240.5C 104.158,241.338 103.492,241.672 102.5,241.5C 102.5,239.833 102.5,238.167 102.5,236.5C 102.5,235.833 102.833,235.5 103.5,235.5C 104.833,235.5 106.167,235.5 107.5,235.5C 108.78,235.363 109.113,237.697 108.5,242.5 Z M 106.5,237.5 C 106.715,239.179 106.048,240.179 104.5,240.5C 104.285,238.821 104.952,237.821 106.5,237.5 Z"/></g>
<g><path style="opacity:0.11" fill="#cee0dd" d="M 108.5,242.5 C 109.113,237.697 108.78,235.363 107.5,235.5C 106.167,235.5 104.833,235.5 103.5,235.5C 104.209,234.596 105.209,234.263 106.5,234.5C 106.5,233.5 106.5,232.5 106.5,231.5C 107.5,231.5 108.5,231.5 109.5,231.5C 109.815,235.371 109.482,239.038 108.5,242.5 Z"/></g>
<g><path style="opacity:0.886" fill="#6aa097" d="M 188.5,236.5 C 188.5,237.167 188.5,237.833 188.5,238.5C 187.265,238.279 186.265,237.612 185.5,236.5C 184.999,238.655 183.999,240.322 182.5,241.5C 182.5,241.167 182.5,240.833 182.5,240.5C 182.5,239.167 182.5,237.833 182.5,236.5C 184.5,233.833 186.5,233.833 188.5,236.5 Z"/></g>
<g><path style="opacity:0.753" fill="#83b0a8" d="M 203.5,241.5 C 202.022,240.552 201.022,239.219 200.5,237.5C 199.278,239.077 198.278,240.744 197.5,242.5C 196.828,241.051 196.161,239.718 195.5,238.5C 195.5,238.167 195.5,237.833 195.5,237.5C 196.833,236.833 196.833,236.167 195.5,235.5C 195.5,234.167 195.5,232.833 195.5,231.5C 197.725,232.997 200.225,234.331 203,235.5C 203.495,237.473 203.662,239.473 203.5,241.5 Z"/></g>
<g><path style="opacity:0.863" fill="#70a39b" d="M 210.5,236.5 C 209.88,238.977 208.88,238.977 207.5,236.5C 206.218,237.958 206.218,239.292 207.5,240.5C 207.158,241.338 206.492,241.672 205.5,241.5C 204.207,239.636 204.207,237.636 205.5,235.5C 207.761,233.827 209.428,234.16 210.5,236.5 Z"/></g>
<g><path style="opacity:0.902" fill="#529187" d="M 219.5,233.5 C 220.309,234.469 221.309,235.302 222.5,236C 220.954,237.44 220.121,239.273 220,241.5C 219.802,239.618 219.302,237.952 218.5,236.5C 218.5,236.167 218.5,235.833 218.5,235.5C 218.328,234.508 218.662,233.842 219.5,233.5 Z"/></g>
<g><path style="opacity:0.843" fill="#6da299" d="M 250.5,231.5 C 249.791,232.404 248.791,232.737 247.5,232.5C 247.5,233.5 247.5,234.5 247.5,235.5C 248.5,235.5 249.5,235.5 250.5,235.5C 249.791,236.404 248.791,236.737 247.5,236.5C 247.66,238.199 247.494,239.866 247,241.5C 246.802,239.618 246.302,237.952 245.5,236.5C 244.5,231.491 246.167,229.824 250.5,231.5 Z"/></g>
<g><path style="opacity:0.918" fill="#72a59c" d="M 257.5,237.5 C 257.44,238.043 257.107,238.376 256.5,238.5C 254.633,235.771 253.633,236.104 253.5,239.5C 254.718,240.161 256.051,240.828 257.5,241.5C 256.5,241.833 255.5,242.167 254.5,242.5C 252.97,242.36 251.97,241.693 251.5,240.5C 251.366,238.708 251.699,237.042 252.5,235.5C 253.601,234.402 254.934,234.235 256.5,235C 257.252,235.671 257.586,236.504 257.5,237.5 Z"/></g>
<g><path style="opacity:0.945" fill="#6fa39b" d="M 264.5,236.5 C 263.88,238.977 262.88,238.977 261.5,236.5C 260.218,237.958 260.218,239.292 261.5,240.5C 262.167,241.167 262.833,241.833 263.5,242.5C 260.715,243.084 259.048,242.084 258.5,239.5C 258.5,238.833 258.5,238.167 258.5,237.5C 258.484,235.516 259.484,234.516 261.5,234.5C 263.038,234.453 264.038,235.12 264.5,236.5 Z"/></g>
<g><path style="opacity:0.773" fill="#afccc7" d="M 95.5,235.5 C 97.4547,234.07 99.1214,234.403 100.5,236.5C 99.8333,237.833 99.1667,239.167 98.5,240.5C 98.7148,238.821 98.0481,237.821 96.5,237.5C 99.2583,236.033 98.925,235.367 95.5,235.5 Z"/></g>
<g><path style="opacity:0.012" fill="#fafcfc" d="M 129.5,235.5 C 130.167,237.167 130.833,238.833 131.5,240.5C 131.5,240.833 131.5,241.167 131.5,241.5C 130.833,241.833 130.167,242.167 129.5,242.5C 129.5,240.167 129.5,237.833 129.5,235.5 Z"/></g>
<g><path style="opacity:0.596" fill="#85b2ab" d="M 167.5,233.5 C 168.167,236.167 168.833,238.833 169.5,241.5C 169.5,241.833 169.5,242.167 169.5,242.5C 167.612,240.012 166.945,237.012 167.5,233.5 Z"/></g>
<g><path style="opacity:0.204" fill="#d6e5e3" d="M 194.5,235.5 C 194.833,235.5 195.167,235.5 195.5,235.5C 195.5,236.167 195.5,236.833 195.5,237.5C 194.833,237.5 194.5,237.833 194.5,238.5C 190.582,237.475 190.582,236.475 194.5,235.5 Z"/></g>
<g><path style="opacity:0.153" fill="#caddda" d="M 216.5,235.5 C 217.167,235.5 217.833,235.5 218.5,235.5C 218.5,235.833 218.5,236.167 218.5,236.5C 217.5,236.833 216.833,237.5 216.5,238.5C 212.582,237.475 212.582,236.475 216.5,235.5 Z"/></g>
<g><path style="opacity:0.149" fill="#e4eeec" d="M 100.5,236.5 C 101.167,236.5 101.833,236.5 102.5,236.5C 102.5,238.167 102.5,239.833 102.5,241.5C 101.833,241.167 101.167,240.833 100.5,240.5C 100.5,239.167 100.5,237.833 100.5,236.5 Z"/></g>
<g><path style="opacity:0.145" fill="#b8d1cd" d="M 114.5,235.5 C 114.5,235.833 114.5,236.167 114.5,236.5C 113.539,238.265 113.205,240.265 113.5,242.5C 112.5,242.5 111.5,242.5 110.5,242.5C 110.335,238.818 110.501,235.152 111,231.5C 111.667,230.167 112.333,230.167 113,231.5C 113.21,233.058 113.71,234.391 114.5,235.5 Z"/></g>
<g><path style="opacity:1" fill="#699e96" d="M 121.5,241.5 C 119.744,240.448 119.077,238.781 119.5,236.5C 118.5,236.5 117.5,236.5 116.5,236.5C 116.5,238.5 116.5,240.5 116.5,242.5C 114.692,241.082 114.025,239.082 114.5,236.5C 114.5,236.167 114.5,235.833 114.5,235.5C 120.327,232.979 122.66,234.979 121.5,241.5 Z"/></g>
<g><path style="opacity:0.008" fill="#f6f9f9" d="M 125.5,237.5 C 125.842,236.662 126.508,236.328 127.5,236.5C 127.5,237.833 127.5,239.167 127.5,240.5C 127.167,240.5 126.833,240.5 126.5,240.5C 126.737,239.209 126.404,238.209 125.5,237.5 Z"/></g>
<g><path style="opacity:1" fill="#46897e" d="M 153.5,235.5 C 154.451,236.919 154.784,238.585 154.5,240.5C 153.668,240.246 153.001,239.246 152.5,237.5C 151.833,237.5 151.167,237.5 150.5,237.5C 149.71,238.609 149.21,239.942 149,241.5C 147.993,236.706 148.16,234.706 149.5,235.5C 150.833,235.5 152.167,235.5 153.5,235.5 Z"/></g>
<g><path style="opacity:0.955" fill="#3e857a" d="M 181.5,235.5 C 181.5,235.833 181.5,236.167 181.5,236.5C 180.167,236.5 178.833,236.5 177.5,236.5C 177.784,238.415 177.451,240.081 176.5,241.5C 176.5,239.5 176.5,237.5 176.5,235.5C 178.167,235.5 179.833,235.5 181.5,235.5 Z"/></g>
<g><path style="opacity:0.596" fill="#91bab4" d="M 181.5,236.5 C 181.5,237.167 181.167,237.5 180.5,237.5C 179.167,239.167 177.833,240.833 176.5,242.5C 176.5,242.167 176.5,241.833 176.5,241.5C 177.451,240.081 177.784,238.415 177.5,236.5C 178.833,236.5 180.167,236.5 181.5,236.5 Z"/></g>
<g><path style="opacity:1" fill="#649c92" d="M 216.5,235.5 C 212.582,236.475 212.582,237.475 216.5,238.5C 216.633,241.925 215.967,242.258 214.5,239.5C 213.508,239.672 212.842,239.338 212.5,238.5C 212.5,237.5 212.5,236.5 212.5,235.5C 213.833,234.167 215.167,234.167 216.5,235.5 Z"/></g>
<g><path style="opacity:0.082" fill="#e2edeb" d="M 121.5,241.5 C 120.791,242.404 119.791,242.737 118.5,242.5C 118.66,240.801 118.494,239.134 118,237.5C 117.802,239.382 117.302,241.048 116.5,242.5C 116.5,240.5 116.5,238.5 116.5,236.5C 117.5,236.5 118.5,236.5 119.5,236.5C 119.077,238.781 119.744,240.448 121.5,241.5 Z"/></g>
<g><path style="opacity:0.853" fill="#4d8f85" d="M 129.5,235.5 C 129.5,237.833 129.5,240.167 129.5,242.5C 129.5,242.833 129.5,243.167 129.5,243.5C 128.599,242.71 127.932,241.71 127.5,240.5C 127.5,239.167 127.5,237.833 127.5,236.5C 127.842,235.662 128.508,235.328 129.5,235.5 Z"/></g>
<g><path style="opacity:0.741" fill="#88b4ac" d="M 152.5,237.5 C 153.001,239.246 153.668,240.246 154.5,240.5C 154.833,240.5 155.167,240.5 155.5,240.5C 155.179,242.048 154.179,242.715 152.5,242.5C 152.5,240.833 152.5,239.167 152.5,237.5 Z"/></g>
<g><path style="opacity:0.635" fill="#86b1aa" d="M 162.5,238.5 C 161.265,238.279 160.265,237.612 159.5,236.5C 158.614,237.325 158.281,238.325 158.5,239.5C 159.718,240.161 161.051,240.828 162.5,241.5C 159.862,242.833 157.529,242.5 155.5,240.5C 155.164,236 157.164,234.167 161.5,235C 162.167,236 162.833,237 163.5,238C 163.272,238.399 162.938,238.565 162.5,238.5 Z"/></g>
<g><path style="opacity:0.353" fill="#bbd4d0" d="M 162.5,238.5 C 161.432,239.434 160.099,239.768 158.5,239.5C 158.281,238.325 158.614,237.325 159.5,236.5C 160.265,237.612 161.265,238.279 162.5,238.5 Z"/></g>
<g><path style="opacity:0.851" fill="#85b1aa" d="M 194.5,235.5 C 190.582,236.475 190.582,237.475 194.5,238.5C 194.833,238.5 195.167,238.5 195.5,238.5C 195.241,242.068 193.241,243.401 189.5,242.5C 189.768,240.901 189.434,239.568 188.5,238.5C 188.5,237.833 188.5,237.167 188.5,236.5C 190.362,234.525 192.362,234.192 194.5,235.5 Z"/></g>
<g><path style="opacity:0.137" fill="#d8e6e4" d="M 200.5,237.5 C 201.022,239.219 202.022,240.552 203.5,241.5C 202.791,242.404 201.791,242.737 200.5,242.5C 200.5,240.833 200.5,239.167 200.5,237.5 Z"/></g>
<g><path style="opacity:0.345" fill="#c7dcd9" d="M 212.5,235.5 C 212.5,236.5 212.5,237.5 212.5,238.5C 210.694,239.024 209.028,239.691 207.5,240.5C 206.218,239.292 206.218,237.958 207.5,236.5C 208.88,238.977 209.88,238.977 210.5,236.5C 211.167,236.167 211.833,235.833 212.5,235.5 Z"/></g>
<g><path style="opacity:0.722" fill="#a6c7c1" d="M 238.5,235.5 C 238.5,237.5 238.5,239.5 238.5,241.5C 237.833,240.833 237.167,240.167 236.5,239.5C 236.989,238.005 237.655,236.671 238.5,235.5 Z"/></g>
<g><path style="opacity:0.114" fill="#d5e4e2" d="M 250.5,235.5 C 251.167,235.5 251.833,235.5 252.5,235.5C 251.699,237.042 251.366,238.708 251.5,240.5C 249.349,236.719 248.349,237.386 248.5,242.5C 247.5,242.5 246.5,242.5 245.5,242.5C 245.5,240.5 245.5,238.5 245.5,236.5C 246.302,237.952 246.802,239.618 247,241.5C 247.494,239.866 247.66,238.199 247.5,236.5C 248.791,236.737 249.791,236.404 250.5,235.5 Z"/></g>
<g><path style="opacity:0.357" fill="#c8dcd9" d="M 257.5,237.5 C 257.833,237.5 258.167,237.5 258.5,237.5C 258.5,238.167 258.5,238.833 258.5,239.5C 256.833,239.5 255.167,239.5 253.5,239.5C 253.633,236.104 254.633,235.771 256.5,238.5C 257.107,238.376 257.44,238.043 257.5,237.5 Z"/></g>
<g><path style="opacity:0.316" fill="#cadedb" d="M 264.5,236.5 C 265.404,237.209 265.737,238.209 265.5,239.5C 263.901,239.232 262.568,239.566 261.5,240.5C 260.218,239.292 260.218,237.958 261.5,236.5C 262.88,238.977 263.88,238.977 264.5,236.5 Z"/></g>
<g><path style="opacity:0.071" fill="#e5eeed" d="M 94.5,236.5 C 94.5,237.833 94.5,239.167 94.5,240.5C 93.8333,240.833 93.1667,241.167 92.5,241.5C 90.8333,240.833 89.1667,240.167 87.5,239.5C 89.5,239.5 91.5,239.5 93.5,239.5C 93.2627,238.209 93.596,237.209 94.5,236.5 Z"/></g>
<g><path style="opacity:1" fill="#378075" d="M 100.5,236.5 C 100.5,237.833 100.5,239.167 100.5,240.5C 100.5,240.833 100.5,241.167 100.5,241.5C 99.5084,241.672 98.8417,241.338 98.5,240.5C 99.1667,239.167 99.8333,237.833 100.5,236.5 Z"/></g>
<g><path style="opacity:0.086" fill="#e3edeb" d="M 174.5,233.5 C 173.391,234.29 172.058,234.79 170.5,235C 171.793,235.49 173.127,235.657 174.5,235.5C 174.5,236.5 174.5,237.5 174.5,238.5C 173.167,238.5 171.833,238.5 170.5,238.5C 170.768,240.099 170.434,241.432 169.5,242.5C 169.5,242.167 169.5,241.833 169.5,241.5C 169.5,240.167 169.5,238.833 169.5,237.5C 174.833,237.167 174.833,236.833 169.5,236.5C 169.5,235.5 169.5,234.5 169.5,233.5C 171.167,233.5 172.833,233.5 174.5,233.5 Z"/></g>
<g><path style="opacity:0.051" fill="#f2f7f6" d="M 181.5,236.5 C 181.833,236.5 182.167,236.5 182.5,236.5C 182.5,237.833 182.5,239.167 182.5,240.5C 181.599,239.71 180.932,238.71 180.5,237.5C 181.167,237.5 181.5,237.167 181.5,236.5 Z"/></g>
<g><path style="opacity:0.188" fill="#cadcd9" d="M 274.5,239.5 C 278.31,240.754 278.31,241.754 274.5,242.5C 274.5,241.5 274.5,240.5 274.5,239.5 Z"/></g>
<g><path style="opacity:0.955" fill="#7daca4" d="M 87.5,239.5 C 89.1667,240.167 90.8333,240.833 92.5,241.5C 90.3718,242.629 88.0385,242.796 85.5,242C 81.7564,235.092 83.7564,231.758 91.5,232C 92.9561,232.423 93.4561,233.256 93,234.5C 91.2784,234.962 89.445,235.128 87.5,235C 86.2721,236.49 86.2721,237.99 87.5,239.5 Z"/></g>
<g><path style="opacity:0.973" fill="#609990" d="M 243.5,241.5 C 242.662,241.158 242.328,240.492 242.5,239.5C 242.5,238.833 242.5,238.167 242.5,237.5C 241.791,236.596 240.791,236.263 239.5,236.5C 239.784,238.415 239.451,240.081 238.5,241.5C 238.5,239.5 238.5,237.5 238.5,235.5C 240.135,234.185 241.801,234.185 243.5,235.5C 244.793,237.636 244.793,239.636 243.5,241.5 Z M 242.5,237.5 C 242.5,238.167 242.5,238.833 242.5,239.5C 241.35,240.85 240.683,240.684 240.5,239C 240.836,237.97 241.503,237.47 242.5,237.5 Z"/></g>
<g><path style="opacity:0.494" fill="#b4cfca" d="M 263.5,242.5 C 262.833,241.833 262.167,241.167 261.5,240.5C 265.312,239.513 268.978,239.346 272.5,240C 273.604,241.131 273.271,241.965 271.5,242.5C 268.807,242.473 266.14,242.473 263.5,242.5 Z"/></g>
<g><path style="opacity:0.761" fill="#8db7b1" d="M 106.5,237.5 C 107.451,238.919 107.784,240.585 107.5,242.5C 105.585,242.784 103.919,242.451 102.5,241.5C 103.492,241.672 104.158,241.338 104.5,240.5C 106.048,240.179 106.715,239.179 106.5,237.5 Z"/></g>
<g><path style="opacity:0.733" fill="#9fc3bd" d="M 188.5,238.5 C 187.737,239.268 186.737,239.768 185.5,240C 186.624,240.249 187.624,240.749 188.5,241.5C 186.364,242.793 184.364,242.793 182.5,241.5C 183.999,240.322 184.999,238.655 185.5,236.5C 186.265,237.612 187.265,238.279 188.5,238.5 Z"/></g>
<g><path style="opacity:0.8" fill="#8db7b0" d="M 216.5,238.5 C 217.434,239.568 217.768,240.901 217.5,242.5C 213.288,241.729 209.288,241.395 205.5,241.5C 206.492,241.672 207.158,241.338 207.5,240.5C 210.059,240.802 212.393,240.468 214.5,239.5C 215.967,242.258 216.633,241.925 216.5,238.5 Z"/></g>
<g><path style="opacity:0.788" fill="#b1cec9" d="M 219.5,233.5 C 219.56,232.957 219.893,232.624 220.5,232.5C 223.777,234.357 224.11,236.524 221.5,239C 222.022,239.95 222.689,240.784 223.5,241.5C 221.955,242.452 220.288,242.785 218.5,242.5C 218.5,240.5 218.5,238.5 218.5,236.5C 219.302,237.952 219.802,239.618 220,241.5C 220.121,239.273 220.954,237.44 222.5,236C 221.309,235.302 220.309,234.469 219.5,233.5 Z"/></g>
<g><path style="opacity:0.561" fill="#a8c8c3" d="M 242.5,237.5 C 241.503,237.47 240.836,237.97 240.5,239C 240.683,240.684 241.35,240.85 242.5,239.5C 242.328,240.492 242.662,241.158 243.5,241.5C 241.833,242.833 240.167,242.833 238.5,241.5C 239.451,240.081 239.784,238.415 239.5,236.5C 240.791,236.263 241.791,236.596 242.5,237.5 Z"/></g>
<g><path style="opacity:0.902" fill="#a2c3bd" d="M 326.5,245.5 C 326.715,243.821 326.048,242.821 324.5,242.5C 325.6,239.984 327.267,238.984 329.5,239.5C 328.481,241.604 327.481,243.604 326.5,245.5 Z"/></g>
<g><path style="opacity:0.482" fill="#bdd5d1" d="M 131.5,241.5 C 131.5,241.167 131.5,240.833 131.5,240.5C 132.743,239.263 133.743,239.596 134.5,241.5C 131.799,246.653 130.799,246.653 131.5,241.5 Z"/></g>
<g><path style="opacity:0.612" fill="#b5d0cb" d="M 59.5,242.5 C 60.9063,242.973 61.573,243.973 61.5,245.5C 60.0937,245.027 59.427,244.027 59.5,242.5 Z"/></g>
<g><path style="opacity:0.714" fill="#97bdb6" d="M 129.5,235.5 C 128.508,235.328 127.842,235.662 127.5,236.5C 126.508,236.328 125.842,236.662 125.5,237.5C 125.263,238.791 125.596,239.791 126.5,240.5C 126.833,240.5 127.167,240.5 127.5,240.5C 127.932,241.71 128.599,242.71 129.5,243.5C 129.441,245.722 128.275,246.722 126,246.5C 124.338,246.612 123.171,245.946 122.5,244.5C 124.078,243.702 125.744,243.202 127.5,243C 122.817,242.601 121.317,240.101 123,235.5C 125.274,234.189 127.44,234.189 129.5,235.5 Z"/></g>
<g><path style="opacity:0.416" fill="#b0cdc8" d="M 317.5,250.5 C 317.573,252.027 316.906,253.027 315.5,253.5C 315.427,251.973 316.094,250.973 317.5,250.5 Z"/></g>
<g><path style="opacity:0.306" fill="#bdd5d1" d="M 310.5,255.5 C 309.807,259.762 308.974,260.095 308,256.5C 307.329,257.252 306.496,257.586 305.5,257.5C 306.785,255.341 308.452,254.674 310.5,255.5 Z"/></g>
<g><path style="opacity:0.957" fill="#8fb7b0" d="M 312.5,272.5 C 311.89,274.434 310.89,276.101 309.5,277.5C 309.241,275.011 310.241,273.344 312.5,272.5 Z"/></g>
<g><path style="opacity:0.718" fill="#a0c3bd" d="M 272.5,282.5 C 272.027,283.906 271.027,284.573 269.5,284.5C 269.973,283.094 270.973,282.427 272.5,282.5 Z"/></g>
<g><path style="opacity:0.996" fill="#87b2ab" d="M 118.5,298.5 C 117.596,297.791 117.263,296.791 117.5,295.5C 115.585,295.784 113.919,295.451 112.5,294.5C 115.972,294.874 118.972,293.874 121.5,291.5C 122.46,294.589 121.46,296.922 118.5,298.5 Z"/></g>
<g><path style="opacity:0.604" fill="#8fb8b2" d="M 233.5,297.5 C 231.5,297.5 229.5,297.5 227.5,297.5C 227.783,296.711 228.283,296.044 229,295.5C 231.283,295.97 232.783,296.637 233.5,297.5 Z"/></g>
<g><path style="opacity:0.016" fill="#d3e3e0" d="M 239.5,297.5 C 240.623,296.243 241.289,296.576 241.5,298.5C 240.833,298.167 240.167,297.833 239.5,297.5 Z"/></g>
<g><path style="opacity:0.035" fill="#e9f1f0" d="M 224.5,298.5 C 223.596,299.209 223.263,300.209 223.5,301.5C 222.5,301.5 221.5,301.5 220.5,301.5C 221.611,300.34 222.611,299.007 223.5,297.5C 224.107,297.624 224.44,297.957 224.5,298.5 Z"/></g>
<g><path style="opacity:0.635" fill="#a7c7c2" d="M 239.5,297.5 C 239.027,298.906 238.027,299.573 236.5,299.5C 236.973,298.094 237.973,297.427 239.5,297.5 Z"/></g>
<g><path style="opacity:0.957" fill="#9dc0ba" d="M 119.5,298.5 C 120.71,298.932 121.71,299.599 122.5,300.5C 120.821,300.715 119.821,300.048 119.5,298.5 Z"/></g>
<g><path style="opacity:0.671" fill="#a4c5c0" d="M 216.5,300.5 C 215.596,301.209 215.263,302.209 215.5,303.5C 214.5,303.5 213.5,303.5 212.5,303.5C 212.369,302.761 212.536,302.094 213,301.5C 213.654,302.696 214.154,302.696 214.5,301.5C 213.108,296.658 213.775,296.325 216.5,300.5 Z"/></g>
<g><path style="opacity:0.486" fill="#b7d2ce" d="M 283.5,303.5 C 285.16,307.577 284.493,308.244 281.5,305.5C 282.167,304.833 282.833,304.167 283.5,303.5 Z"/></g>
<g><path style="opacity:0.871" fill="#a6c6c1" d="M 212.5,303.5 C 212.843,305.483 212.176,306.817 210.5,307.5C 210.989,306.005 211.655,304.671 212.5,303.5 Z"/></g>
<g><path style="opacity:1" fill="#93bab3" d="M 162.5,309.5 C 166.425,309.43 170.091,310.097 173.5,311.5C 171.533,311.261 169.699,311.594 168,312.5C 166.351,311.047 164.518,310.047 162.5,309.5 Z"/></g>
<g><path style="opacity:0.494" fill="#a9c8c3" d="M 96.5,312.5 C 98.0269,312.427 99.0269,313.094 99.5,314.5C 97.9731,314.573 96.9731,313.906 96.5,312.5 Z"/></g>
<g><path style="opacity:0.976" fill="#75a69e" d="M 274.5,311.5 C 275.906,311.973 276.573,312.973 276.5,314.5C 276.737,315.791 276.404,316.791 275.5,317.5C 274.167,316.833 273.167,315.833 272.5,314.5C 273.401,313.71 274.068,312.71 274.5,311.5 Z"/></g>
<g><path style="opacity:0.31" fill="#bbd4d0" d="M 100.5,315.5 C 102.027,315.427 103.027,316.094 103.5,317.5C 101.973,317.573 100.973,316.906 100.5,315.5 Z"/></g>
<g><path style="opacity:0.208" fill="#ddeae8" d="M 276.5,314.5 C 277.782,315.708 277.782,317.042 276.5,318.5C 275.893,318.376 275.56,318.043 275.5,317.5C 276.404,316.791 276.737,315.791 276.5,314.5 Z"/></g>
<g><path style="opacity:0.18" fill="#cbdedb" d="M 126.5,324.5 C 128.027,324.427 129.027,325.094 129.5,326.5C 127.973,326.573 126.973,325.906 126.5,324.5 Z"/></g>
<g><path style="opacity:0.337" fill="#b7d2cd" d="M 139.5,331.5 C 141.027,331.427 142.027,332.094 142.5,333.5C 140.973,333.573 139.973,332.906 139.5,331.5 Z"/></g>
<g><path style="opacity:0.118" fill="#e9f1f0" d="M 147.5,335.5 C 147.56,334.957 147.893,334.624 148.5,334.5C 149.057,336.332 150.057,337.665 151.5,338.5C 150.791,339.404 149.791,339.737 148.5,339.5C 148.768,337.901 148.434,336.568 147.5,335.5 Z"/></g>
<g><path style="opacity:0.341" fill="#b4d0cb" d="M 255.5,329.5 C 255.5,331.5 255.5,333.5 255.5,335.5C 252.833,335.5 250.167,335.5 247.5,335.5C 249.607,334.532 251.941,334.198 254.5,334.5C 254.216,332.585 254.549,330.919 255.5,329.5 Z"/></g>
<g><path style="opacity:0.776" fill="#a9c8c3" d="M 246.5,336.5 C 246.875,339.397 246.375,342.063 245,344.5C 244.005,343.934 243.172,343.267 242.5,342.5C 244.121,340.77 245.455,338.77 246.5,336.5 Z"/></g>
<g><path style="opacity:0.867" fill="#a5c6c0" d="M 217.5,343.5 C 219.565,343.517 221.565,343.85 223.5,344.5C 221.402,345.484 219.402,345.151 217.5,343.5 Z"/></g>
</svg>
